# xmcd
#
# Track frame offsets:
#	150
#	14349
#	30648
#	45341
#	60821
#	72786
#	92408
#	106068
#	126701
#	142800
#	165833
#	187026
#
# Disc length: 2811 seconds
#
# Revision: 1
# Processed by: cddbd v1.5.2PL0 Copyright (c) Steve Scherf et al.
# Submitted via: audiograbber 1.83.01
#
DISCID=8c0af90c
DTITLE=Aubrie Sellers - Far From Home
DYEAR=2020
DGENRE=Country
TTITLE0=Far From Home
TTITLE1=My Love Will Not Change (Feat. Steve Earle)
TTITLE2=Lucky Charm
TTITLE3=Worried Mind
TTITLE4=Drag You Down
TTITLE5=Going Places
TTITLE6=Glad
TTITLE7=Haven't Even Kissed Me yet
TTITLE8=Troublemaker
TTITLE9=Run
TTITLE10=Under The Sun
TTITLE11=One Town's Trash
EXTD=
EXTT0=
EXTT1=
EXTT2=
EXTT3=
EXTT4=
EXTT5=
EXTT6=
EXTT7=
EXTT8=
EXTT9=
EXTT10=
EXTT11=
PLAYORDER=
